<?xml version="1.0" encoding="utf-8"?>
<!-- Generator: Adobe Illustrator 21.0.0, SVG Export Plug-In . SVG Version: 6.00 Build 0)  -->
<svg version="1.1" id="Layer_1" xmlns="http://www.w3.org/2000/svg" xmlns:xlink="http://www.w3.org/1999/xlink" x="0px" y="0px"
	 viewBox="0 0 730 304.1" style="enable-background:new 0 0 730 304.1;" xml:space="preserve">
<style type="text/css">
	.st0{fill:#EA7A57;}
	.st1{fill:#433C45;}
	.st2{fill:#9B9281;}
</style>
<g>
	<g>
		<path class="st0" d="M515.4,223.8l21.7-17.8c8.1-6.7,11.3-10.3,11.3-15.7c0-5.5-3.6-6.9-8.8-6.9c-5,0-8.5,1.2-13.3,7.2l-10.1-6.5
			c6.4-8.8,12.7-13.5,24.4-13.5c13.5,0,22.5,6.3,22.5,18.6v0.2c0,10.9-5.6,16.3-17.2,25.3l-10.6,8.2h28.5v12.4h-48.3V223.8z"/>
		<path class="st0" d="M617.3,202.8v-0.2c0-11.9-5.8-19.2-14.4-19.2c-8.6,0-14.2,7.1-14.2,19v0.2c0,11.9,5.7,20.8,14.4,20.8
			C611.8,223.4,617.3,214.6,617.3,202.8 M574,202.8v-0.2c0-18.9,11.8-32.2,29.1-32.2c17.3,0,28.9,13.1,28.9,32v0.2
			c0,18.9-11.7,33.8-29.1,33.8C585.5,236.3,574,221.7,574,202.8"/>
	</g>
	<polygon class="st0" points="653.3,185.6 641.9,186.8 638.9,176.6 657.6,171 667.4,171 667.4,235.2 653.3,235.2 	"/>
	<polygon class="st0" points="713.1,183.9 682.4,183.9 682.4,171.5 729.4,171.5 729.4,182.3 700.1,235.2 683.9,235.2 	"/>
	<rect x="515" y="261" class="st1" width="5.2" height="23.5"/>
	<polygon class="st1" points="545.2,261 550.5,261 550.5,284.5 545.2,284.5 534,269.7 534,284.5 528.8,284.5 528.8,261 533.7,261 
		545.2,276.1 	"/>
	<polygon class="st1" points="574.9,261 574.9,265.6 564,265.6 564,270.7 574.4,270.7 574.4,275.3 564,275.3 564,284.5 558.8,284.5 
		558.8,261 	"/>
	<polygon class="st1" points="582.3,284.5 582.3,261 587.6,261 587.6,279.8 597.6,279.8 597.6,284.5 	"/>
	<g>
		<path class="st1" d="M609.2,278.4c0.9,1.1,2,1.6,3.5,1.6c1.5,0,2.6-0.5,3.5-1.6c0.9-1.1,1.3-2.6,1.3-4.5v-13h5.2v13.1
			c0,3.4-0.9,6-2.8,7.8c-1.9,1.8-4.3,2.7-7.2,2.7c-2.9,0-5.3-0.9-7.2-2.8c-1.9-1.8-2.8-4.4-2.8-7.8V261h5.2v13
			C607.9,275.8,608.3,277.3,609.2,278.4"/>
	</g>
	<polygon class="st1" points="647.8,261 647.8,265.6 636.1,265.6 636.1,270.5 646.6,270.5 646.6,275 636.1,275 636.1,279.8 
		648.2,279.8 648.2,284.5 630.9,284.5 630.9,261 	"/>
	<polygon class="st1" points="672.7,261 678,261 678,284.5 672.7,284.5 661.6,269.7 661.6,284.5 656.3,284.5 656.3,261 661.2,261 
		672.7,276.1 	"/>
	<g>
		<path class="st1" d="M696.4,279.8c2.6,0,4.7-1,6.3-3.1l3.4,3.5c-2.7,3-5.8,4.5-9.4,4.5c-3.6,0-6.6-1.1-8.9-3.4
			c-2.3-2.3-3.5-5.2-3.5-8.6c0-3.5,1.2-6.4,3.6-8.7c2.4-2.3,5.3-3.5,8.8-3.5c3.9,0,7.1,1.5,9.7,4.4l-3.3,3.7
			c-1.7-2.1-3.7-3.1-6.2-3.1c-2,0-3.7,0.6-5.1,1.9c-1.4,1.3-2.1,3-2.1,5.2c0,2.2,0.7,3.9,2,5.3C693,279.2,694.6,279.8,696.4,279.8"
			/>
	</g>
	<polygon class="st1" points="729,261 729,265.6 717.4,265.6 717.4,270.5 727.9,270.5 727.9,275 717.4,275 717.4,279.8 729.4,279.8 
		729.4,284.5 712.1,284.5 712.1,261 	"/>
	<polygon class="st1" points="630.5,296.4 622.8,296.4 622.8,291.2 620.7,291.2 620.7,304.1 622.8,304.1 622.8,298.3 630.5,298.3 
		630.5,304.1 632.7,304.1 632.7,291.2 630.5,291.2 	"/>
	<polygon class="st1" points="644.9,298.4 652,298.4 652,296.5 644.9,296.5 644.9,293 652.5,293 652.5,291.2 642.8,291.2 
		642.8,304.1 652.7,304.1 652.7,302.3 644.9,302.3 	"/>
	<path class="st1" d="M669.8,299h-5.2l2.6-5.7L669.8,299z M666,291.2l-6.3,12.8h2.4l1.6-3.3h7l1.6,3.3h2.4l-6.3-12.8H666z"/>
	<polygon class="st1" points="684.4,291.2 682.3,291.2 682.3,304.1 691.6,304.1 691.6,302.3 684.4,302.3 	"/>
	<polygon class="st1" points="696.2,293.1 701.5,293.1 701.5,304.1 703.7,304.1 703.7,293.1 709,293.1 709,291.2 696.2,291.2 	"/>
	<polygon class="st1" points="726.9,291.2 726.9,296.5 719.2,296.5 719.2,291.2 717.1,291.2 717.1,304.1 719.2,304.1 719.2,298.2 
		726.9,298.2 726.9,304.1 729.1,304.1 729.1,291.2 	"/>
	<path class="st2" d="M28.5,97.5H6.3c-1.4,0-2.5-1.1-2.5-2.5V4.2c0-1.4,1.1-2.5,2.5-2.5h22.2c1.4,0,2.5,1.1,2.5,2.5v90.9
		C31,96.4,29.9,97.5,28.5,97.5z"/>
	<g>
		<path class="st0" d="M34.9,123.9c0,9.6-7.8,17.4-17.4,17.4c-9.6,0-17.4-7.8-17.4-17.4c0-9.6,7.8-17.4,17.4-17.4
			C27.1,106.4,34.9,114.3,34.9,123.9"/>
		<path class="st1" d="M124.7,0c1.7,0,2.8,1,2.8,2.8v133.1c0,1.7-1,2.8-2.8,2.8h-17.2c-1.6,0-2.6-0.7-3.1-2.3l-26.5-74H77v73.5
			c0,1.7-0.9,2.8-2.8,2.8h-18c-1.7,0-2.8-1-2.8-2.8V2.8c0-1.7,1-2.8,2.8-2.8h17.2c1.6,0,2.6,0.7,3.1,2.3l26.3,73.7h1V2.8
			c0-1.7,0.9-2.8,2.8-2.8H124.7z"/>
		<path class="st1" d="M214.1,20.1c0,1.7-1,2.8-2.8,2.8h-43v34.8h32.6c1.7,0,2.8,1,2.8,2.8v17.3c0,1.9-1,2.8-2.8,2.8h-32.6v55.3
			c0,1.7-1,2.8-2.8,2.8h-18c-1.9,0-2.8-1-2.8-2.8V2.8c0-1.7,0.9-2.8,2.8-2.8h63.8c1.7,0,2.8,1,2.8,2.8V20.1z"/>
		<path class="st1" d="M253.3,115.8h41.3c1.9,0,2.8,1,2.8,2.8v17.3c0,1.9-0.9,2.8-2.8,2.8h-62.1c-1.7,0-2.8-0.9-2.8-2.8V2.8
			c0-1.7,1-2.8,2.8-2.8h18c1.9,0,2.8,1,2.8,2.8V115.8z"/>
		<path class="st1" d="M375.3,0c1.9,0,3.5,1.6,3.5,3.5v110.3c0,16.3-8.7,25-25,25h-19.4c-16.3,0-25-8.7-25-25V3.5
			c0-1.9,1.6-3.5,3.5-3.5h16.6c1.9,0,3.5,1.6,3.5,3.5v105.4c0,4.7,2.4,6.9,6.9,6.9h9c4.5,0,6.9-2.3,6.9-6.9V3.5
			c0-1.9,1.6-3.5,3.5-3.5H375.3z"/>
		<path class="st1" d="M465.3,20.1c0,1.7-0.7,2.9-2.8,2.9h-43.3v34.7h33.1c1.7,0,2.8,1,2.8,2.9v17.2c0,1.9-1,2.9-2.8,2.9h-33.1v35
			h43.3c2.1,0,2.8,0.9,2.8,2.8v17.3c0,1.7-0.7,2.8-2.8,2.8h-63.8c-1.6,0-2.6-1-2.6-2.8V2.8c0-1.7,1-2.8,2.6-2.8h63.8
			c2.1,0,2.8,1,2.8,2.8V20.1z"/>
		<path class="st1" d="M553.9,0c1.7,0,2.8,1,2.8,2.8v133.1c0,1.7-1,2.8-2.8,2.8h-17.2c-1.6,0-2.6-0.7-3.1-2.3l-26.5-74h-0.9v73.5
			c0,1.7-0.9,2.8-2.8,2.8h-18c-1.7,0-2.8-1-2.8-2.8V2.8c0-1.7,1-2.8,2.8-2.8h17.2c1.6,0,2.6,0.7,3.1,2.3L532,75.9h1V2.8
			c0-1.7,0.9-2.8,2.8-2.8H553.9z"/>
		<path class="st1" d="M643.5,43.7c0,1.7-1,2.8-2.8,2.8h-17.3c-1.9,0-2.8-1-2.8-2.8V29.8c0-4.5-2.4-6.9-6.9-6.9h-9
			c-4.7,0-6.9,2.4-6.9,6.9v79c0,4.7,2.4,6.9,6.9,6.9h9c4.5,0,6.9-2.3,6.9-6.9V95c0-1.7,0.9-2.8,2.8-2.8h17.3c1.7,0,2.8,1,2.8,2.8
			v18.7c0,16.3-8.8,25-25,25h-19.4c-16.3,0-25.1-8.7-25.1-25V25c0-16.3,8.8-25,25.1-25h19.4c16.1,0,25,8.7,25,25V43.7z"/>
		<path class="st1" d="M730,20.1c0,1.7-0.7,2.9-2.8,2.9h-43.3v34.7H717c1.7,0,2.8,1,2.8,2.9v17.2c0,1.9-1,2.9-2.8,2.9h-33.1v35h43.3
			c2.1,0,2.8,0.9,2.8,2.8v17.3c0,1.7-0.7,2.8-2.8,2.8h-63.8c-1.6,0-2.6-1-2.6-2.8V2.8c0-1.7,1-2.8,2.6-2.8h63.8c2.1,0,2.8,1,2.8,2.8
			V20.1z"/>
	</g>
	<polygon class="st2" points="4.7,174 9.8,174 9.8,183.1 19.2,183.1 19.2,174 24.3,174 24.3,197.1 19.2,197.1 19.2,187.8 9.8,187.8 
		9.8,197.1 4.7,197.1 	"/>
	<polygon class="st2" points="31.8,174 49.3,174 49.3,178.5 36.9,178.5 36.9,183.2 47.8,183.2 47.8,187.7 36.9,187.7 36.9,192.6 
		49.5,192.6 49.5,197.1 31.8,197.1 	"/>
	<path class="st2" d="M69.3,187.5l-3.1-7.5l-3.1,7.5H69.3z M63.9,173.8h4.7l9.9,23.3h-5.3l-2.1-5.2h-9.8l-2.1,5.2H54L63.9,173.8z"/>
	<polygon class="st2" points="84.1,174 89.2,174 89.2,192.5 100.8,192.5 100.8,197.1 84.1,197.1 	"/>
	<polygon class="st2" points="108.7,178.7 101.6,178.7 101.6,174 120.8,174 120.8,178.7 113.8,178.7 113.8,197.1 108.7,197.1 	"/>
	<polygon class="st2" points="126.7,174 131.8,174 131.8,183.1 141.2,183.1 141.2,174 146.3,174 146.3,197.1 141.2,197.1 
		141.2,187.8 131.8,187.8 131.8,197.1 126.7,197.1 	"/>
	<g>
		<path class="st2" d="M152.8,185.6L152.8,185.6c0-6.7,5-12,12.1-12c4.4,0,7,1.5,9.1,3.6l-3.2,3.7c-1.8-1.6-3.6-2.6-5.9-2.6
			c-3.9,0-6.7,3.2-6.7,7.2v0.1c0,4,2.7,7.3,6.7,7.3c2.6,0,4.3-1.1,6.1-2.7l3.2,3.3c-2.4,2.5-5,4.1-9.5,4.1
			C157.9,197.5,152.8,192.3,152.8,185.6"/>
	</g>
	<path class="st2" d="M193.6,187.5l-3.1-7.5l-3.1,7.5H193.6z M188.2,173.8h4.7l9.9,23.3h-5.3l-2.1-5.2h-9.8l-2.1,5.2h-5.2
		L188.2,173.8z"/>
	<g>
		<path class="st2" d="M218.7,185.2c2.5,0,3.9-1.3,3.9-3.3v-0.1c0-2.2-1.5-3.3-4-3.3h-5.1v6.7H218.7z M208.4,174H219
			c2.9,0,5.2,0.8,6.8,2.3c1.3,1.3,2,3.1,2,5.3v0.1c0,3.7-2,6.1-5,7.2l5.7,8.3h-6l-5-7.4h-0.1h-3.9v7.4h-5.1V174z"/>
	</g>
	<polygon class="st2" points="234.3,174 251.8,174 251.8,178.5 239.4,178.5 239.4,183.2 250.3,183.2 250.3,187.7 239.4,187.7 
		239.4,192.6 251.9,192.6 251.9,197.1 234.3,197.1 	"/>
	<g>
		<path class="st2" d="M274.6,185.6L274.6,185.6c0-6.7,5-12,12.1-12c4.4,0,7,1.5,9.1,3.6l-3.2,3.7c-1.8-1.6-3.6-2.6-5.9-2.6
			c-3.9,0-6.7,3.2-6.7,7.2v0.1c0,4,2.7,7.3,6.7,7.3c2.6,0,4.3-1.1,6.1-2.7l3.2,3.3c-2.4,2.5-5,4.1-9.5,4.1
			C279.7,197.5,274.6,192.3,274.6,185.6"/>
		<path class="st2" d="M319.7,185.6L319.7,185.6c0-4-2.9-7.3-7-7.3c-4.1,0-6.9,3.2-6.9,7.2v0.1c0,4,2.9,7.3,7,7.3
			C316.8,192.8,319.7,189.6,319.7,185.6 M300.4,185.6L300.4,185.6c0-6.7,5.2-12,12.3-12c7.1,0,12.3,5.3,12.3,11.9v0.1
			c0,6.6-5.2,12-12.3,12C305.5,197.5,300.4,192.2,300.4,185.6"/>
	</g>
	<polygon class="st2" points="331.5,174 336.2,174 347.1,188.2 347.1,174 352.1,174 352.1,197.1 347.8,197.1 336.6,182.4 
		336.6,197.1 331.5,197.1 	"/>
	<g>
		<path class="st2" d="M358.1,193.8l3-3.6c2.1,1.7,4.3,2.8,6.9,2.8c2.1,0,3.3-0.8,3.3-2.2v-0.1c0-1.3-0.8-2-4.7-2.9
			c-4.7-1.2-7.7-2.5-7.7-7.1v-0.1c0-4.2,3.4-7,8.1-7c3.4,0,6.3,1.1,8.6,2.9l-2.6,3.8c-2.1-1.4-4.1-2.3-6-2.3c-2,0-3,0.9-3,2v0.1
			c0,1.5,1,2,5,3c4.7,1.2,7.3,2.9,7.3,6.9v0.1c0,4.6-3.5,7.2-8.5,7.2C364.4,197.5,360.8,196.3,358.1,193.8"/>
		<path class="st2" d="M382.5,187.2V174h5.1v13.1c0,3.8,1.9,5.7,5,5.7c3.1,0,5-1.9,5-5.6V174h5.1v13.1c0,7-3.9,10.5-10.2,10.5
			C386.3,197.5,382.5,194,382.5,187.2"/>
	</g>
	<polygon class="st2" points="409.8,174 415.3,174 421.4,183.8 427.5,174 433,174 433,197.1 427.9,197.1 427.9,182 421.4,191.9 
		421.3,191.9 414.8,182.1 414.8,197.1 409.8,197.1 	"/>
	<polygon class="st2" points="440.5,174 458,174 458,178.5 445.6,178.5 445.6,183.2 456.5,183.2 456.5,187.7 445.6,187.7 
		445.6,192.6 458.2,192.6 458.2,197.1 440.5,197.1 	"/>
	<g>
		<path class="st2" d="M475,185.2c2.5,0,3.9-1.3,3.9-3.3v-0.1c0-2.2-1.5-3.3-4-3.3h-5.1v6.7H475z M464.7,174h10.6
			c2.9,0,5.2,0.8,6.8,2.3c1.3,1.3,2,3.1,2,5.3v0.1c0,3.7-2,6.1-5,7.2l5.7,8.3h-6l-5-7.4h-0.1h-3.9v7.4h-5.1V174z"/>
	</g>
	<polygon class="st2" points="4.7,211.5 22.2,211.5 22.2,216 9.8,216 9.8,220.7 20.7,220.7 20.7,225.3 9.8,225.3 9.8,230.1 
		22.4,230.1 22.4,234.7 4.7,234.7 	"/>
	<polygon class="st2" points="33.9,222.9 26.1,211.5 32.1,211.5 36.9,219 41.8,211.5 47.6,211.5 39.9,222.8 48,234.7 42,234.7 
		36.8,226.7 31.6,234.7 25.8,234.7 	"/>
	<g>
		<path class="st2" d="M61.6,223.2c2.5,0,4-1.5,4-3.5v-0.1c0-2.3-1.6-3.5-4.1-3.5h-3.9v7.1H61.6z M52.4,211.5h9.5
			c5.5,0,8.9,3.3,8.9,8v0.1c0,5.4-4.2,8.1-9.4,8.1h-3.9v7h-5.1V211.5z"/>
	</g>
	<polygon class="st2" points="75.2,211.5 92.7,211.5 92.7,216 80.3,216 80.3,220.7 91.2,220.7 91.2,225.3 80.3,225.3 80.3,230.1 
		92.8,230.1 92.8,234.7 75.2,234.7 	"/>
	<g>
		<path class="st2" d="M108.3,222.8c2.5,0,3.9-1.3,3.9-3.3v-0.1c0-2.2-1.5-3.3-4-3.3h-5.1v6.7H108.3z M98,211.5h10.6
			c2.9,0,5.2,0.8,6.8,2.3c1.3,1.3,2,3.1,2,5.3v0.1c0,3.7-2,6.1-5,7.2l5.7,8.3h-6l-5-7.4h-0.1h-3.9v7.4H98V211.5z"/>
	</g>
	<rect x="122.9" y="211.5" class="st2" width="5.1" height="23.2"/>
	<polygon class="st2" points="134.4,211.5 151.9,211.5 151.9,216 139.5,216 139.5,220.7 150.4,220.7 150.4,225.3 139.5,225.3 
		139.5,230.1 152,230.1 152,234.7 134.4,234.7 	"/>
	<polygon class="st2" points="157.2,211.5 161.9,211.5 172.8,225.8 172.8,211.5 177.8,211.5 177.8,234.7 173.5,234.7 162.3,219.9 
		162.3,234.7 157.2,234.7 	"/>
	<g>
		<path class="st2" d="M183,223.2L183,223.2c0-6.7,5-12,12.1-12c4.4,0,7,1.5,9.1,3.6l-3.2,3.7c-1.8-1.6-3.6-2.6-5.9-2.6
			c-3.9,0-6.7,3.2-6.7,7.2v0.1c0,4,2.7,7.3,6.7,7.3c2.6,0,4.3-1.1,6.1-2.7l3.2,3.3c-2.4,2.5-5,4.1-9.5,4.1
			C188.1,235.1,183,229.8,183,223.2"/>
	</g>
	<polygon class="st2" points="209.1,211.5 226.6,211.5 226.6,216 214.2,216 214.2,220.7 225.1,220.7 225.1,225.3 214.2,225.3 
		214.2,230.1 226.8,230.1 226.8,234.7 209.1,234.7 	"/>
	<g>
		<path class="st2" d="M242.2,223.2L242.2,223.2c0-6.7,5-12,12.1-12c4.4,0,7,1.5,9.1,3.6l-3.2,3.7c-1.8-1.6-3.6-2.6-5.9-2.6
			c-3.9,0-6.7,3.2-6.7,7.2v0.1c0,4,2.7,7.3,6.7,7.3c2.6,0,4.3-1.1,6.1-2.7l3.2,3.3c-2.4,2.5-5,4.1-9.5,4.1
			C247.2,235.1,242.2,229.8,242.2,223.2"/>
		<path class="st2" d="M285.9,223.2L285.9,223.2c0-4-2.9-7.3-7-7.3c-4.1,0-6.9,3.2-6.9,7.2v0.1c0,4,2.9,7.3,7,7.3
			C283.1,230.4,285.9,227.1,285.9,223.2 M266.6,223.2L266.6,223.2c0-6.7,5.2-12,12.3-12c7.1,0,12.3,5.3,12.3,11.9v0.1
			c0,6.6-5.2,12-12.3,12C271.7,235.1,266.6,229.7,266.6,223.2"/>
	</g>
	<polygon class="st2" points="296.4,211.5 301.1,211.5 312,225.8 312,211.5 317,211.5 317,234.7 312.7,234.7 301.5,219.9 
		301.5,234.7 296.4,234.7 	"/>
	<polygon class="st2" points="323.2,211.5 340.9,211.5 340.9,216.1 328.3,216.1 328.3,221.1 339.4,221.1 339.4,225.7 328.3,225.7 
		328.3,234.7 323.2,234.7 	"/>
	<polygon class="st2" points="345.6,211.5 363.1,211.5 363.1,216 350.7,216 350.7,220.7 361.6,220.7 361.6,225.3 350.7,225.3 
		350.7,230.1 363.2,230.1 363.2,234.7 345.6,234.7 	"/>
	<g>
		<path class="st2" d="M378.7,222.8c2.5,0,3.9-1.3,3.9-3.3v-0.1c0-2.2-1.5-3.3-4-3.3h-5.1v6.7H378.7z M368.4,211.5H379
			c2.9,0,5.2,0.8,6.8,2.3c1.3,1.3,2,3.1,2,5.3v0.1c0,3.7-2,6.1-5,7.2l5.7,8.3h-6l-5-7.4h-0.1h-3.9v7.4h-5.1V211.5z"/>
	</g>
	<polygon class="st2" points="393,211.5 410.5,211.5 410.5,216 398.1,216 398.1,220.7 409,220.7 409,225.3 398.1,225.3 398.1,230.1 
		410.7,230.1 410.7,234.7 393,234.7 	"/>
	<polygon class="st2" points="415.9,211.5 420.6,211.5 431.4,225.8 431.4,211.5 436.4,211.5 436.4,234.7 432.1,234.7 420.9,219.9 
		420.9,234.7 415.9,234.7 	"/>
	<g>
		<path class="st2" d="M441.6,223.2L441.6,223.2c0-6.7,5-12,12.1-12c4.4,0,7,1.5,9.1,3.6l-3.2,3.7c-1.8-1.6-3.6-2.6-5.9-2.6
			c-3.9,0-6.7,3.2-6.7,7.2v0.1c0,4,2.7,7.3,6.7,7.3c2.6,0,4.3-1.1,6.1-2.7l3.2,3.3c-2.4,2.5-5,4.1-9.5,4.1
			C446.7,235.1,441.6,229.8,441.6,223.2"/>
	</g>
	<polygon class="st2" points="467.7,211.5 485.2,211.5 485.2,216 472.8,216 472.8,220.7 483.7,220.7 483.7,225.3 472.8,225.3 
		472.8,230.1 485.4,230.1 485.4,234.7 467.7,234.7 	"/>
	<g>
		<path class="st1" d="M369,266.8c1.2,0,2-0.7,2-1.7v0c0-1.1-0.8-1.7-2-1.7h-1.9v3.4H369z M364.6,261.1h4.6c2.7,0,4.3,1.6,4.3,3.9v0
			c0,2.6-2,4-4.6,4h-1.9v3.4h-2.5V261.1z"/>
		<path class="st1" d="M385.2,266.7L385.2,266.7c0-2-1.4-3.6-3.4-3.6c-2,0-3.4,1.6-3.4,3.5v0c0,1.9,1.4,3.5,3.4,3.5
			C383.8,270.3,385.2,268.7,385.2,266.7 M375.8,266.7L375.8,266.7c0-3.2,2.5-5.9,6-5.9c3.5,0,6,2.6,6,5.8v0c0,3.2-2.5,5.8-6,5.8
			C378.3,272.5,375.8,270,375.8,266.7"/>
	</g>
	<polygon class="st1" points="389.4,261.1 392.1,261.1 394.4,268.7 397,261 399.1,261 401.6,268.7 403.9,261.1 406.5,261.1 
		402.7,272.4 400.5,272.4 398,265.1 395.4,272.4 393.3,272.4 	"/>
	<polygon class="st1" points="409.3,261.1 417.8,261.1 417.8,263.3 411.8,263.3 411.8,265.6 417.1,265.6 417.1,267.8 411.8,267.8 
		411.8,270.1 417.9,270.1 417.9,272.4 409.3,272.4 	"/>
	<g>
		<path class="st1" d="M426.1,266.6c1.2,0,1.9-0.6,1.9-1.6v0c0-1.1-0.7-1.6-1.9-1.6h-2.5v3.2H426.1z M421.1,261.1h5.2
			c1.4,0,2.5,0.4,3.3,1.1c0.6,0.6,1,1.5,1,2.6v0c0,1.8-1,3-2.4,3.5l2.8,4h-2.9l-2.4-3.6h0h-1.9v3.6h-2.5V261.1z"/>
	</g>
	<polygon class="st1" points="433.7,261.1 442.2,261.1 442.2,263.3 436.2,263.3 436.2,265.6 441.5,265.6 441.5,267.8 436.2,267.8 
		436.2,270.1 442.3,270.1 442.3,272.4 433.7,272.4 	"/>
	<path class="st1" d="M449.9,270.1c2,0,3.4-1.4,3.4-3.4v0c0-2-1.4-3.4-3.4-3.4h-1.9v6.8H449.9z M445.5,261.1h4.4c3.5,0,6,2.4,6,5.6
		v0c0,3.2-2.4,5.6-6,5.6h-4.4V261.1z"/>
	<path class="st1" d="M470.2,270.2c1.1,0,1.8-0.4,1.8-1.2v0c0-0.8-0.6-1.2-1.8-1.2h-2.9v2.5H470.2z M469.5,265.6
		c1.1,0,1.8-0.4,1.8-1.2v0c0-0.7-0.6-1.2-1.6-1.2h-2.4v2.4H469.5z M464.8,261.1h5.2c1.3,0,2.3,0.4,2.9,1c0.5,0.5,0.8,1.1,0.8,1.9v0
		c0,1.3-0.7,2-1.5,2.4c1.3,0.5,2.1,1.3,2.1,2.8v0c0,2.1-1.7,3.1-4.2,3.1h-5.4V261.1z"/>
	<polygon class="st1" points="480.1,267.9 475.8,261.1 478.7,261.1 481.3,265.6 484.1,261.1 486.9,261.1 482.6,267.9 482.6,272.4 
		480.1,272.4 	"/>
</g>
</svg>
